<svg xmlns="http://www.w3.org/2000/svg" version="1.1" xmlns:xlink="http://www.w3.org/1999/xlink" xmlns:svgjs="http://svgjs.com/svgjs" width="500" height="500"><svg width="500" height="500" viewBox="0 0 500 500" fill="none" xmlns="http://www.w3.org/2000/svg">
<path fill-rule="evenodd" clip-rule="evenodd" d="M12.5275 12.5275C29.2307 -4.17582 56.3121 -4.17582 73.0154 12.5275L109.432 48.944C149.361 20.7409 198.093 4.17238 250.695 4.17238C302.94 4.17238 351.367 20.5162 391.142 48.3698L426.985 12.5275C443.688 -4.17581 470.769 -4.17581 487.473 12.5275C504.176 29.2308 504.176 56.3121 487.473 73.0154L451.63 108.858C479.484 148.633 495.828 197.06 495.828 249.305C495.828 301.907 479.259 350.639 451.056 390.568L487.473 426.985C504.176 443.688 504.176 470.769 487.473 487.473C470.769 504.176 443.688 504.176 426.985 487.473L390.323 450.811C350.702 478.316 302.581 494.437 250.695 494.437C198.451 494.437 150.024 478.093 110.249 450.239L73.0154 487.473C56.3121 504.176 29.2308 504.176 12.5275 487.473C-4.17579 470.769 -4.1758 443.688 12.5275 426.985L49.7606 389.751C21.907 349.976 5.56322 301.549 5.56322 249.305C5.56322 197.419 21.6836 149.298 49.1892 109.677L12.5275 73.0154C-4.17582 56.3121 -4.17582 29.2307 12.5275 12.5275ZM172.201 388.287C195.378 401.406 222.162 408.894 250.695 408.894C278.864 408.894 305.328 401.596 328.3 388.788L250 310.488L172.201 388.287ZM189.512 250L111.713 327.8C98.5942 304.622 91.1061 277.838 91.1061 249.305C91.1061 221.136 98.404 194.672 111.212 171.7L189.512 250ZM310.488 250L389.173 328.685C402.604 305.306 410.285 278.202 410.285 249.305C410.285 220.771 402.797 193.987 389.678 170.81L310.488 250ZM329.19 110.322L250 189.512L171.315 110.827C194.694 97.3958 221.798 89.7153 250.695 89.7153C279.229 89.7153 306.013 97.2034 329.19 110.322Z" fill="white"></path>
</svg><style>@media (prefers-color-scheme: light) { :root { filter: contrast(1) brightness(0.1); } }
@media (prefers-color-scheme: dark) { :root { filter: none; } }
</style></svg>